<svg xmlns="http://www.w3.org/2000/svg" version="1.1" xmlns:xlink="http://www.w3.org/1999/xlink" xmlns:svgjs="http://svgjs.dev/svgjs" width="2000" height="2000" viewBox="0 0 2000 2000"><g transform="matrix(1,0,0,1,-0.28443113772425477,-0.28443113772459583)"><svg viewBox="0 0 334 334" data-background-color="#ffffff" preserveAspectRatio="xMidYMid meet" height="2000" width="2000" xmlns="http://www.w3.org/2000/svg" xmlns:xlink="http://www.w3.org/1999/xlink"><g id="tight-bounds" transform="matrix(1,0,0,1,0.04749999999998522,0.04750000000001364)"><svg viewBox="0 0 333.90454557049503 333.90454557049503" height="333.90454557049503" width="333.90454557049503"><g><svg></svg></g><g><svg viewBox="0 0 333.90454557049503 333.90454557049503" height="333.90454557049503" width="333.90454557049503"><g><path d="M0 166.952c0-92.205 74.747-166.952 166.952-166.952 92.205 0 166.952 74.747 166.953 166.952 0 92.205-74.747 166.952-166.953 166.953-92.205 0-166.952-74.747-166.952-166.953zM166.952 316.63c82.665 0 149.677-67.013 149.678-149.678 0-82.665-67.013-149.677-149.678-149.677-82.665 0-149.677 67.013-149.677 149.677 0 82.665 67.013 149.677 149.677 149.678z" data-fill-palette-color="tertiary" fill="#915eff" stroke="transparent"></path><ellipse rx="160.27418187383762" ry="160.27418187383762" cx="166.95227278524752" cy="166.95227278524752" fill="#915eff" stroke="transparent" stroke-width="0" fill-opacity="1" data-fill-palette-color="tertiary"></ellipse></g><g transform="matrix(1,0,0,1,90.34225462361948,71.17305217166897)"><svg viewBox="0 0 153.22003632325607 191.5584412271571" height="191.5584412271571" width="153.22003632325607"><g><svg viewBox="0 0 153.22003632325607 191.5584412271571" height="191.5584412271571" width="153.22003632325607"><g><svg viewBox="0 0 153.22003632325607 191.5584412271571" height="191.5584412271571" width="153.22003632325607"><g id="textblocktransform"><svg viewBox="0 0 153.22003632325607 191.5584412271571" height="191.5584412271571" width="153.22003632325607" id="textblock"><g><svg viewBox="0 0 153.22003632325607 191.5584412271571" height="191.5584412271571" width="153.22003632325607"><g transform="matrix(1,0,0,1,0,0)"><svg width="153.22003632325607" viewBox="1.49 -35.01 28 35.01" height="191.5584412271571" data-palette-color="#ffffff"><path d="M18.99-10.96L18.99 0 12.01 0 12.01-10.96Q9.69-11.55 7.75-12.84 5.81-14.14 4.42-15.93 3.03-17.72 2.26-19.91 1.49-22.09 1.49-24.51L1.49-24.51 1.49-35.01 8.5-35.01 8.5-24.51Q8.5-23.07 9.05-21.79 9.59-20.51 10.55-19.56 11.5-18.6 12.78-18.05 14.06-17.5 15.5-17.5L15.5-17.5Q16.94-17.5 18.23-18.05 19.51-18.6 20.46-19.56 21.41-20.51 21.96-21.79 22.51-23.07 22.51-24.51L22.51-24.51 22.51-35.01 29.49-35.01 29.49-24.51Q29.49-22.09 28.72-19.91 27.95-17.72 26.56-15.93 25.17-14.14 23.24-12.84 21.31-11.55 18.99-10.96L18.99-10.96Z" opacity="1" transform="matrix(1,0,0,1,0,0)" fill="#ffffff" class="wordmark-text-0" data-fill-palette-color="quaternary" id="text-0"></path></svg></g></svg></g></svg></g></svg></g></svg></g></svg></g></svg></g><defs></defs></svg><rect width="333.90454557049503" height="333.90454557049503" fill="none" stroke="none" visibility="hidden"></rect></g></svg></g></svg>